<?xml version="1.0" encoding="UTF-8"?>
<svg version="1.1" xmlns="http://www.w3.org/2000/svg" width="3215" height="537">
<path d="M0 0 C1.13589863 0.00717223 1.13589863 0.00717223 2.2947447 0.01448935 C3.50301219 0.0102824 3.50301219 0.0102824 4.73568913 0.00599045 C7.46935164 -0.00103952 10.20279307 0.00633964 12.93645272 0.01350539 C14.91075446 0.01142154 16.88505545 0.00846085 18.8593547 0.00469666 C24.33180077 -0.00315157 29.80417707 0.00159972 35.27662211 0.00825257 C41.21236151 0.01329529 47.14808964 0.0068184 53.08382746 0.0017659 C63.50261177 -0.0054827 73.92137819 -0.00529017 84.34016213 -0.00013978 C95.52402671 0.00535521 106.70787916 0.00652947 117.89174446 0.00238555 C118.94977998 0.00199803 118.94977998 0.00199803 120.02918996 0.00160269 C122.90181781 0.00053619 125.77444563 -0.00056122 128.64707345 -0.00169787 C155.42908939 -0.01228761 182.2110972 -0.01298904 208.99311432 -0.00740296 C209.78740058 -0.00723737 210.58168683 -0.00707178 211.40004236 -0.00690117 C212.59336692 -0.00665238 212.59336692 -0.00665238 213.81079904 -0.00639857 C238.02080529 -0.00135774 262.23080816 -0.00004684 286.44081482 -0.00244386 C288.06029487 -0.00259881 289.67977491 -0.00275313 291.29925496 -0.0029068 C297.80684541 -0.0035277 304.31443586 -0.00416503 310.82202631 -0.00482632 C329.01507691 -0.0066606 347.20812752 -0.00780161 365.40117821 -0.0083986 C366.22974203 -0.00842589 367.05830586 -0.00845318 367.91197768 -0.0084813 C394.32513532 -0.00930021 420.73829178 -0.00704427 447.15144905 -0.00269944 C448.43702162 -0.00248869 448.43702162 -0.00248869 449.74856535 -0.00227369 C463.6675749 0.00001637 477.58658442 0.00245522 491.50559395 0.00490666 C546.70926838 0.01461887 601.91293312 0.01416976 657.11660752 0.00444549 C671.02611462 0.00200321 684.93562173 -0.00041885 698.84512886 -0.00269944 C699.70152668 -0.00284034 700.5579245 -0.00298123 701.44027377 -0.0031264 C727.82341618 -0.00743732 754.20655779 -0.00926759 780.58970055 -0.0083986 C781.83168083 -0.00835785 781.83168083 -0.00835785 783.09875163 -0.00831627 C801.27262032 -0.00769137 819.44648892 -0.00642421 837.62035752 -0.00457759 C844.12285625 -0.00391928 850.62535498 -0.00329312 857.12785371 -0.00267617 C858.74558781 -0.00252139 860.3633219 -0.00236393 861.98105599 -0.00220378 C886.18481668 0.00018575 910.38857359 -0.00185403 934.59233382 -0.00690117 C935.38645448 -0.00706676 936.18057515 -0.00723235 936.99876007 -0.00740296 C937.79142342 -0.00756833 938.58408676 -0.00773369 939.4007702 -0.00790407 C966.10575114 -0.0134143 992.81072231 -0.01140398 1019.51570184 -0.00084148 C1022.3804407 0.00026329 1025.24517957 0.00133669 1028.10991844 0.00238555 C1028.81299854 0.00264596 1029.51607864 0.00290638 1030.2404642 0.00317468 C1041.3958238 0.0071272 1052.5511713 0.00436477 1063.70652981 -0.00115246 C1074.66228448 -0.00642909 1085.61802093 -0.00444189 1096.57377342 0.00487571 C1102.43997308 0.0096605 1108.3061266 0.01120396 1114.17232491 0.00406375 C1119.49987123 -0.0023551 1124.82733011 0.00028693 1130.15486994 0.01042507 C1132.07892353 0.01245375 1134.00298421 0.01106997 1135.92703222 0.00601319 C1138.52447022 -0.00033355 1141.12159872 0.00547701 1143.719022 0.01448935 C1144.47150627 0.00970786 1145.22399054 0.00492638 1145.99927736 0 C1149.678793 0.02621293 1152.558084 0.11880868 1155.63223252 2.26518767 C1163.54614309 16.44691543 1162.16109133 42.36840985 1158.55410752 57.32378142 C1157.39754105 61.01401258 1156.15380289 63.34962193 1153.63223252 66.26518767 C1153.11660752 66.86331267 1152.60098252 67.46143767 1152.06973252 68.07768767 C1148.76899655 70.8043826 1145.1088143 70.39093183 1141.04161128 70.3923462 C1140.02573092 70.39474593 1140.02573092 70.39474593 1138.98932773 70.39719414 C1136.69892265 70.4013711 1134.40858164 70.39837693 1132.11817536 70.39547294 C1130.46082621 70.39700922 1128.80347743 70.39898479 1127.14612928 70.40136211 C1122.55837167 70.40666237 1117.97063283 70.40569692 1113.38287334 70.40378899 C1108.40435091 70.40281902 1103.42583373 70.40764196 1098.4473134 70.41176801 C1089.71064103 70.41821654 1080.97397346 70.42098544 1072.23729882 70.42139381 C1059.24568966 70.42203724 1046.25408788 70.42842098 1033.26248123 70.4361406 C1012.75133676 70.44823153 992.24019259 70.45689125 971.72904558 70.46317875 C939.86144512 70.47296598 907.99385478 70.49150035 876.12626048 70.51331071 C863.62379526 70.52186201 851.12132984 70.53013272 838.61886444 70.5384278 C836.51255439 70.53982599 834.40624433 70.54122681 832.29993427 70.54262795 C799.91003069 70.56415729 767.52012598 70.5835953 735.13022039 70.6018408 C732.93393446 70.60307861 730.73764853 70.60432017 728.5413626 70.60556218 C694.71315347 70.62466716 660.88494436 70.64162423 627.05673203 70.65392058 C625.96531572 70.65431807 625.96531572 70.65431807 624.85185059 70.65472359 C616.78014976 70.65766046 608.70844892 70.66055322 600.63674807 70.6634282 C599.91162161 70.66368648 599.18649515 70.66394477 598.43939516 70.66421088 C594.78043829 70.6655136 591.12148141 70.66681361 587.46252453 70.66811044 C554.40749412 70.67984935 521.35246778 70.69368458 488.29744324 70.71696418 C487.60284777 70.71745239 486.9082523 70.7179406 486.19260848 70.7184436 C471.63027442 70.72870144 457.06794091 70.73957955 442.50560794 70.75127081 C435.68650082 70.75674282 428.86739359 70.76206996 422.04828629 70.76731246 C421.37689292 70.76783105 420.70549954 70.76834964 420.01376092 70.76888395 C398.3733179 70.78552532 376.7328857 70.79219277 355.09243673 70.79348729 C332.69405611 70.7948562 310.29570371 70.80651776 287.89733529 70.83036653 C274.9768724 70.8437814 262.05646908 70.84874487 249.13600075 70.84182017 C240.51474464 70.83801246 231.89354153 70.84497716 223.27229926 70.86083595 C218.35399713 70.86956765 213.43581751 70.87347196 208.51751345 70.86426208 C204.04653682 70.85597949 199.57579735 70.86138024 195.10484537 70.87786967 C193.49425673 70.88137954 191.88364743 70.87982795 190.27307076 70.87269568 C188.08984285 70.86375358 185.90743386 70.87324932 183.7242504 70.88733082 C181.9094088 70.88816507 181.9094088 70.88816507 180.05790372 70.88901617 C175.92821046 71.34249604 173.30987102 72.34058388 169.63223252 74.26518767 C166.04169087 80.15033551 165.22857765 87.2052926 163.92080673 93.89824431 C163.5421698 95.78726722 163.5421698 95.78726722 163.15588364 97.7144522 C162.46726735 101.1509956 161.78814978 104.58935352 161.11082587 108.02813786 C160.3987104 111.63520921 159.67795651 115.24055398 158.95819077 118.84610503 C157.75123986 124.89829978 156.54984473 130.95157438 155.35244736 137.00566619 C153.66579561 145.53341831 151.96933157 154.059196 150.27078971 162.58458667 C147.86906715 174.6422904 145.47205959 186.70093615 143.08486923 198.76152556 C142.85005844 199.9445526 142.61524765 201.12757964 142.37332138 202.34645598 C142.15751419 203.43842788 141.941707 204.53039977 141.7193602 205.65546172 C141.53244551 206.59950394 141.34553082 207.54354615 141.15295204 208.51619571 C138.8159647 218.12288887 138.8159647 218.12288887 140.94473252 227.20268767 C144.73937919 229.59190965 148.233931 229.40140934 152.59870896 229.42340606 C153.66836103 229.43081302 153.66836103 229.43081302 154.75962224 229.43836963 C157.15490077 229.45375744 159.55015246 229.46210871 161.94546494 229.47050994 C163.66017377 229.48008746 165.37488023 229.49009746 167.0895842 229.50050872 C171.75039981 229.52757755 176.41122556 229.54857641 181.07207641 229.5685107 C185.94080556 229.59035805 190.80950337 229.61775286 195.67820725 229.64456695 C204.90040808 229.69451077 214.12262631 229.73944334 223.34486118 229.78258931 C233.84293791 229.83194724 244.34098319 229.88687073 254.83902952 229.9422689 C276.43673456 230.05611489 298.03446962 230.16294824 319.63223252 230.26518767 C319.96223252 231.91518767 320.29223252 233.56518767 320.63223252 235.26518767 C319.68863877 236.07600799 318.74504502 236.8868283 317.77285752 237.72221892 C316.47559049 238.8402538 315.17874692 239.95878012 313.88223252 241.07768767 C313.20064072 241.66574187 312.51904892 242.25379607 311.81680283 242.8596701 C308.0982642 246.08191147 304.43358895 249.34500577 300.84317002 252.70927947 C288.04548438 264.6964165 278.70759619 270.73593154 261.04360947 270.6499533 C259.68109672 270.65406451 258.3185875 270.65952863 256.95608505 270.66623443 C254.03632857 270.67790834 251.11676084 270.68046233 248.19698509 270.67587798 C243.57839503 270.66904125 238.96005144 270.68498072 234.34150681 270.70427459 C223.70905447 270.74525382 213.07660961 270.75667779 202.44409165 270.76780456 C192.68696119 270.77831678 182.92994996 270.79509062 173.17289308 270.83590024 C168.58296708 270.85424283 163.9933252 270.85815431 159.4033713 270.85096496 C156.54926212 270.84944264 153.69529511 270.86022903 150.84122452 270.87434333 C148.88968326 270.88024951 146.93811468 270.87124454 144.98658737 270.86179107 C143.82170792 270.86999373 142.65682846 270.8781964 141.45664963 270.88664764 C139.9415982 270.8877164 139.9415982 270.8877164 138.39593968 270.88880675 C134.25787535 271.45235722 131.72601352 273.08907038 128.90459904 276.12287181 C127.42894747 278.60746388 126.85641499 280.71217409 126.27436814 283.54224151 C126.04982106 284.60993113 125.82527399 285.67762075 125.59392246 286.7776646 C125.35995101 287.94441879 125.12597956 289.11117299 124.88491806 290.31328338 C124.628884 291.54927181 124.37284994 292.78526025 124.10905728 294.05870288 C123.41211413 297.42984596 122.72951261 300.80372826 122.05157408 304.17873948 C121.63661796 306.24336773 121.21927255 308.3074992 120.80124268 310.3715071 C119.02419605 319.15346182 117.27445394 327.94072425 115.53367028 336.72993033 C114.56499481 341.62055578 113.59219433 346.51035572 112.61872849 351.40002959 C109.85630019 365.27816967 107.0974966 379.1570245 104.34634384 393.03740447 C102.81568181 400.75986701 101.28086262 408.48149134 99.74146464 416.20221733 C98.77426171 421.05431921 97.8120883 425.90738132 96.85374209 430.76123982 C96.25748928 433.77464407 95.65634626 436.78705744 95.05383858 439.79921668 C94.77730663 441.18669204 94.50273821 442.57456054 94.23036179 443.96285766 C90.39335767 463.50406252 90.39335767 463.50406252 86.13223252 467.76518767 C82.28915818 470.07103227 79.42098144 470.39387281 75.02140793 470.41235869 C73.85349716 470.419514 72.6855864 470.4266693 71.4822844 470.43404143 C70.19960175 470.43673034 68.9169191 470.43941924 67.59536728 470.44218963 C66.23197237 470.44845548 64.86857917 470.45510239 63.50518784 470.46210235 C59.02801687 470.48312409 54.55084562 470.49350036 50.07363877 470.50346892 C48.5324443 470.50751665 46.99125002 470.51163358 45.45005593 470.51581901 C38.21202521 470.53486354 30.97400467 470.54909825 23.73595372 470.55743098 C15.37741965 470.56721252 7.01914975 470.59355879 -1.33929119 470.63393187 C-7.79881102 470.66406401 -14.25825497 470.67889693 -20.71784374 470.68221199 C-24.57678501 470.68456509 -28.4354438 470.69355929 -32.29430977 470.71867316 C-35.92315004 470.74190962 -39.55152094 470.74620539 -43.18041626 470.73591178 C-45.14774855 470.73517842 -47.11505678 470.75429906 -49.0822908 470.77397674 C-50.25302139 470.76703292 -51.42375198 470.7600891 -52.62995926 470.75293487 C-53.64740943 470.75532322 -54.6648596 470.75771157 -55.71314159 470.7601723 C-59.09399524 470.1297744 -60.26162795 468.93136605 -62.36776748 466.26518767 C-63.76572217 461.5534427 -63.13069153 457.40581595 -62.19052139 452.67851775 C-62.05187479 451.94087849 -61.91322819 451.20323922 -61.77038017 450.44324725 C-61.31543744 448.04792664 -60.8436742 445.65642586 -60.36776748 443.26518767 C-60.21360115 442.48253413 -60.05943481 441.69988059 -59.90059677 440.89351028 C-58.8880698 435.76809978 -57.84680918 430.64883955 -56.79529587 425.53129905 C-56.17545412 422.51440374 -55.55852239 419.49692416 -54.94216934 416.47931426 C-54.02859832 412.00778627 -53.11391707 407.53648749 -52.19839493 403.06535857 C-49.62754102 390.50720112 -47.06736746 377.94686396 -44.50839248 365.38628142 C-44.30160771 364.37143196 -44.30160771 364.37143196 -44.09064546 363.33608049 C-34.71084685 317.30013325 -25.45810172 271.23844155 -16.20541397 225.17680877 C-16.03085784 224.30784201 -15.85630171 223.43887526 -15.67645601 222.54357617 C-14.12249423 214.80758459 -12.56860173 207.07157911 -11.01530281 199.3354544 C-7.07380045 179.7052423 -3.12051455 160.07755227 0.86034378 140.45527785 C2.09493042 134.36548708 3.32520357 128.2748238 4.55491623 122.18404716 C5.61957852 116.91315013 6.69125447 111.64375193 7.76893505 106.37550204 C8.40043159 103.27951989 9.02488144 100.1821508 9.64710411 97.08429282 C10.0530001 95.07441552 10.46759095 93.06629995 10.8826445 91.05829375 C13.73530583 76.7646949 12.35511534 66.55884065 4.55410752 54.09331267 C1.15309267 49.08856725 -2.45278529 44.23635715 -6.07479873 39.39018767 C-9.5890239 34.6007837 -9.56084028 31.24783807 -9.55526748 25.45268767 C-9.55446182 24.60134246 -9.55365616 23.74999724 -9.55282608 22.87285369 C-9.33372463 0.0669707 -9.33372463 0.0669707 0 0 Z " fill="#BE1E2D" transform="translate(246.36776748439297,29.734812325797975)"/>
<path d="M0 0 C0.75629165 0.00250888 1.5125833 0.00501775 2.29179287 0.00760266 C3.49263878 0.00568553 3.49263878 0.00568553 4.71774419 0.00372967 C7.44051222 0.00063069 10.16322386 0.00475183 12.88599009 0.00875333 C14.85010338 0.00801464 16.81421655 0.00683708 18.77832935 0.00525683 C24.22710693 0.00216629 29.67586608 0.00538062 35.1246423 0.00953496 C41.0329418 0.01295098 46.9412393 0.01060186 52.84953917 0.00895747 C63.22157906 0.00687737 73.59361433 0.00850576 83.96565337 0.01259568 C95.09994214 0.01696689 106.23422817 0.01916907 117.36851782 0.01869347 C118.07058842 0.01866478 118.77265902 0.01863609 119.49600448 0.01860653 C123.07557929 0.01845016 126.6551541 0.01825821 130.23472891 0.01805369 C156.17434899 0.0166445 182.11396662 0.02008288 208.05358595 0.0260711 C233.75029603 0.03198909 259.44700505 0.03584529 285.1437158 0.03692391 C285.94110212 0.03695832 286.73848844 0.03699274 287.56003799 0.03702819 C294.84269603 0.03734138 302.12535408 0.03762907 309.40801213 0.03788616 C327.51368251 0.03852565 345.61935286 0.03948502 363.72502322 0.04066136 C364.96190261 0.04074134 364.96190261 0.04074134 366.22376948 0.04082293 C406.35686073 0.04344585 446.48995129 0.04975399 486.62304205 0.0563617 C500.55399094 0.05865332 514.48493983 0.06092866 528.41588873 0.0631366 C529.7118478 0.06334203 529.7118478 0.06334203 531.03398785 0.0635516 C571.18121961 0.06989308 611.32845147 0.07362043 651.47568359 0.0766714 C654.08136032 0.07686946 656.68703706 0.07706866 659.29271379 0.07726808 C676.56034748 0.07858783 693.82798117 0.07986249 711.09561486 0.08110694 C745.45532644 0.08358358 779.81503799 0.08632527 814.17474953 0.08924898 C815.81113073 0.08938822 817.44751193 0.08952728 819.08389312 0.08966615 C892.77093399 0.09592101 966.45797436 0.1052595 1040.14501471 0.11593201 C1041.18020561 0.11608192 1041.18020561 0.11608192 1042.23630946 0.11623485 C1076.75332256 0.12123554 1111.27033564 0.12641208 1145.78734869 0.13180115 C1146.2748168 1.40013353 1146.75929341 2.66961589 1147.24251837 3.93957093 C1147.64769218 4.99979683 1147.64769218 4.99979683 1148.06105131 6.08144143 C1151.2605654 15.11376761 1151.16026923 25.28890271 1151.15795416 34.7528949 C1151.16236196 36.76285145 1151.19895505 38.77066216 1151.23656744 40.78023865 C1151.2645796 50.22967299 1150.34011179 58.55060664 1144.41234869 66.19430115 C1139.52170275 69.80406364 1134.84409971 70.38180381 1128.87312687 70.38200751 C1127.85945556 70.38613802 1127.85945556 70.38613802 1126.82530604 70.39035198 C1124.55794478 70.39715096 1122.29085665 70.38970101 1120.02350039 70.38234093 C1118.37569214 70.38431467 1116.72788474 70.38716687 1115.08007935 70.39081874 C1110.53279119 70.39834546 1105.98558788 70.39337813 1101.43830187 70.3864673 C1096.4984865 70.38116662 1091.55868416 70.38747483 1086.61887026 70.39235797 C1077.9548674 70.39933283 1069.29088913 70.398929 1060.62688536 70.39375451 C1047.74349605 70.38611956 1034.86012837 70.38996631 1021.97673929 70.39637698 C1000.30519793 70.40691471 978.63366434 70.4087322 956.96212096 70.40619614 C935.49524458 70.40377969 914.0283792 70.40724932 892.56150526 70.41798356 C891.89490242 70.41831657 891.22829957 70.41864957 890.54149664 70.41899267 C882.41232645 70.42307803 874.28315641 70.42742956 866.15398641 70.4318591 C853.75448393 70.43859773 841.35498115 70.4447661 828.95547836 70.45089335 C827.56347973 70.45158125 826.1714811 70.4522705 824.77948247 70.45296109 C791.96903038 70.46922756 759.15857724 70.48041773 726.34812246 70.48959028 C724.17084288 70.49019974 721.9935633 70.49081448 719.81628371 70.49143 C686.27457511 70.50088225 652.73286716 70.50773032 619.19115729 70.51015809 C617.73344038 70.5102656 616.27572348 70.51037324 614.81800657 70.51048101 C608.26765928 70.51096252 601.71731198 70.51142656 595.16696468 70.51188845 C592.26144665 70.51209359 589.35592861 70.51230039 586.45041058 70.51250697 C584.27350633 70.51266049 582.09660208 70.51281022 579.91969782 70.51295977 C547.13634849 70.51524586 514.35300525 70.52052858 481.56966013 70.53809121 C480.88088642 70.53845876 480.1921127 70.53882632 479.48246706 70.53920501 C465.0428131 70.54693741 450.60315975 70.55546459 436.16350691 70.56506131 C429.40213017 70.56954937 422.64075331 70.57383166 415.87937636 70.57798722 C414.88081764 70.57860541 414.88081764 70.57860541 413.86208602 70.57923608 C391.73665523 70.59282085 369.61125214 70.59146314 347.48581965 70.58335277 C325.94261865 70.57568538 304.39946 70.58202936 282.85626745 70.60299183 C270.04421579 70.61499463 257.23227647 70.61567424 244.42022758 70.60049931 C235.87389659 70.59145732 227.32765406 70.59675461 218.78133572 70.61394178 C213.90420959 70.62332638 209.02730677 70.6262266 204.15018832 70.61167116 C199.71892403 70.59856395 195.28807777 70.60362969 190.85684242 70.62358451 C189.25841502 70.62752527 187.65995381 70.62467247 186.0615544 70.61442591 C183.89926324 70.60152604 181.73844549 70.61307516 179.57622135 70.63089648 C177.77689277 70.63116114 177.77689277 70.63116114 175.94121412 70.63143115 C172.1364095 71.23507457 170.48834037 72.43033548 167.78734869 75.13180115 C166.51404562 78.06798754 166.51404562 78.06798754 165.84105963 81.57686951 C165.68584719 82.26104164 165.53063475 82.94521376 165.3707189 83.65011838 C164.81735705 86.1391576 164.30063909 88.63419331 163.78734869 91.13180115 C163.57894858 92.12697377 163.37054846 93.12214638 163.15583319 94.14747575 C161.49992377 102.07757986 159.90906121 110.02025834 158.33354563 117.96664884 C157.7855941 120.72829214 157.23533683 123.48947423 156.68517083 126.25067708 C155.3878893 132.76215861 154.0948585 139.27447423 152.80443854 145.78731873 C151.47711038 152.48597951 150.14187155 159.18303036 148.80293388 165.87937936 C147.64731132 171.66055278 146.49686965 177.44274114 145.35049123 183.2257547 C144.66835982 186.66646787 143.98424503 190.10675563 143.29498572 193.54604867 C142.52873008 197.37076335 141.77327267 201.19756725 141.01879401 205.02462342 C140.79130972 206.15251282 140.56382544 207.28040223 140.32944769 208.4424701 C139.292778 213.74651285 138.36854725 218.7232442 138.78734869 224.13180115 C140.61850076 226.74773268 141.69703236 227.10169571 144.78734869 228.13180115 C147.06313363 228.23171038 149.34177997 228.26956056 151.61974615 228.27656129 C152.6678472 228.28185155 152.6678472 228.28185155 153.737122 228.2872487 C156.08394902 228.29794333 158.43073546 228.30161795 160.77758307 228.30538514 C162.45786741 228.3116897 164.13815008 228.31845539 165.81843085 228.32564881 C169.43939899 228.34032357 173.06036065 228.35204621 176.68134589 228.36159661 C182.40368211 228.37703288 188.12596277 228.4009807 193.84826178 228.42649415 C210.12105327 228.49774383 226.3938763 228.5575393 242.66674322 228.6086078 C251.6520197 228.63688119 260.63724062 228.67224375 269.62245888 228.71526155 C275.31424918 228.74208044 281.00597662 228.75995676 286.69781775 228.77129879 C290.23467194 228.78040566 293.77144951 228.79775799 297.30825896 228.81747773 C298.95179762 228.82496945 300.5953559 228.82903526 302.23891157 228.82947304 C304.47774448 228.8305512 306.71618508 228.84375899 308.95495123 228.86005738 C310.2093022 228.86428932 311.46365317 228.86852126 312.75601477 228.87288144 C315.78734869 229.13180115 315.78734869 229.13180115 318.78734869 231.13180115 C318.27910483 235.22547449 316.27723865 236.82064383 313.22484869 239.44430115 C312.31348151 240.23707459 311.40211432 241.02984803 310.46312994 241.8466449 C309.58012213 242.60074647 308.69711432 243.35484803 307.78734869 244.13180115 C306.49408475 245.25496462 305.20227838 246.37980995 303.91234869 247.50680115 C303.27555182 248.0585199 302.63875494 248.61023865 301.98266119 249.17867615 C299.7375015 251.17614919 297.54931296 253.22897049 295.35961432 255.28683045 C281.68693819 268.0699334 270.26323045 270.27328929 251.81957526 270.289516 C249.8686996 270.29731446 247.91782395 270.305117 245.96694893 270.3130739 C243.88728018 270.32074482 241.80761566 270.32615116 239.7279386 270.33103135 C235.38236567 270.34178399 231.03686854 270.36204339 226.69134039 270.38415101 C214.34072842 270.44584622 201.99012411 270.50016137 189.63939947 270.53316834 C182.80454939 270.55151337 175.96982959 270.58043576 169.13507528 270.62117305 C165.52387626 270.64222168 161.91284111 270.6576975 158.30157751 270.65998032 C154.28004966 270.66252627 150.25897991 270.68798261 146.23754401 270.71529725 C145.04471304 270.71229111 143.85188208 270.70928498 142.62290472 270.70618775 C141.52678366 270.71728074 140.4306626 270.72837373 139.30132574 270.73980286 C138.35158503 270.74311301 137.40184431 270.74642316 136.42332358 270.74983361 C133.2216713 271.21377098 131.36598799 272.19472464 128.78734869 274.13180115 C126.05301461 279.93061749 124.83969513 285.9286744 123.6335401 292.19796326 C123.43916169 293.1785499 123.24478327 294.15913653 123.0445146 295.16943791 C122.40285271 298.41477102 121.77087587 301.66191074 121.13891119 304.9091449 C120.68564371 307.21167398 120.23175292 309.51408043 119.77727789 311.81637147 C118.81414351 316.70168656 117.8551347 321.58778617 116.8993482 326.47454407 C115.41262648 334.07422734 113.91467476 341.67166928 112.4147901 349.26876405 C108.60295414 368.58607344 104.80311959 387.90572352 101.03486342 407.23158505 C99.82023092 413.4596534 98.59905701 419.68640977 97.37174315 425.91199162 C96.70414175 429.30103814 96.04109449 432.69083356 95.38921637 436.08294251 C94.68581183 439.73543505 93.96871812 443.38497937 93.24828619 447.0341449 C93.05442328 448.06225281 92.86056036 449.09036073 92.66082281 450.14962342 C91.3436092 456.71961598 89.73553793 463.18361192 84.84984869 468.06930115 C80.85043301 470.1296062 76.72954734 470.25765459 72.29787726 470.26551392 C71.20728003 470.26977891 70.1166828 470.27404389 68.99303717 470.27843812 C67.80641486 470.27798493 66.61979254 470.27753175 65.39721197 470.27706483 C63.51103659 470.28210274 63.51103659 470.28210274 61.58675665 470.28724244 C58.14453886 470.29605967 54.70234595 470.29841959 51.26011795 470.29905823 C49.10736643 470.29977 46.9546212 470.30190674 44.80187125 470.30455544 C37.28547033 470.31380121 29.76908713 470.31789128 22.25268072 470.31710389 C15.25616888 470.31650325 8.25973417 470.32705436 1.26324183 470.34284755 C-4.7522089 470.35594037 -10.76763448 470.36128706 -16.78309935 470.36064848 C-20.37205959 470.36039401 -23.96095125 470.36321692 -27.54989725 470.37382653 C-31.55455999 470.38534241 -35.55905076 470.38075005 -39.56372553 470.37472108 C-40.74629938 470.38034058 -41.92887323 470.38596009 -43.14728265 470.39174989 C-48.85509941 470.36991029 -53.88270494 470.2848346 -59.21265131 468.13180115 C-61.86691221 464.73102937 -62.41447001 462.24472369 -61.90238386 458.08360436 C-61.23326367 452.82940323 -60.22671896 447.65489838 -59.17693048 442.46544984 C-58.96967555 441.42505189 -58.76242061 440.38465395 -58.54888522 439.31272879 C-57.85606585 435.83973255 -57.15777039 432.36786082 -56.45947748 428.89596131 C-55.95943984 426.39526385 -55.45973863 423.89449909 -54.96034723 421.39367249 C-53.74080364 415.29108973 -52.51769899 409.18922989 -51.29300346 403.08767925 C-49.8470707 395.88297356 -48.40542636 388.67741168 -46.96394953 381.47181339 C-44.367237 368.49213439 -41.76695509 355.51317306 -39.1645556 342.53463319 C-36.686793 330.17764649 -34.21097515 317.82027281 -31.73779779 305.46236756 C-31.5878984 304.71335699 -31.43799901 303.96434643 -31.28355722 303.19263857 C-30.67950802 300.17432887 -30.07546289 297.15601835 -29.47142564 294.13770626 C-26.92674128 281.42249566 -24.38033868 268.70762907 -21.83374744 255.99280026 C-21.239935 253.0279439 -20.64618642 250.06307476 -20.05249267 247.09819463 C-13.99105971 216.8281259 -7.92295732 186.55962939 -1.76306146 156.30941561 C-1.03520556 152.73427992 -0.30814909 149.15898264 0.41862673 145.58362725 C0.88475628 143.29087499 1.35089966 140.99812554 1.81705756 138.70537904 C2.0421371 137.59828013 2.26721665 136.49118123 2.49911678 135.35053387 C3.79604782 128.97510803 5.09946065 122.60105226 6.40816159 116.22803262 C7.19657867 112.38216034 7.97948602 108.53518122 8.7609703 104.68789485 C9.11657018 102.94360101 9.47456842 101.19979391 9.83528776 99.45655158 C13.43820185 82.03779505 15.5142265 69.65759132 5.70531744 53.9482074 C2.79119451 49.66901671 -0.28947444 45.5123351 -3.42969232 41.39644959 C-8.72919241 34.36761939 -9.4891625 29.61209141 -8.96265131 20.88180115 C-8.92269037 19.97816834 -8.88272943 19.07453553 -8.84155756 18.1435199 C-7.87709496 0.02726301 -7.87709496 0.02726301 0 0 Z " fill="#BE1E2D" transform="translate(1669.2126513069961,36.868198845302686)"/>
<path d="M0 0 C0.67267273 -0.00297112 1.34534545 -0.00594224 2.0384022 -0.0090034 C4.3030899 -0.0177078 6.56772485 -0.01920011 8.83242798 -0.02069092 C10.45182916 -0.02531784 12.07122924 -0.03034233 13.69062805 -0.03573608 C18.09766202 -0.04887371 22.50468075 -0.05530762 26.91173124 -0.05974674 C29.6632899 -0.06267511 32.41484436 -0.06677945 35.16640091 -0.07125092 C43.77024643 -0.08492906 52.37408241 -0.09459432 60.97793806 -0.09845281 C70.91948699 -0.10293533 80.86089856 -0.1204909 90.80240571 -0.1494534 C98.48057952 -0.17104795 106.15871461 -0.18115588 113.83691847 -0.18249393 C118.42575011 -0.1835435 123.01445267 -0.18948364 127.60325241 -0.20731354 C131.91899953 -0.22375594 136.23452003 -0.22596848 140.55028725 -0.21717453 C142.13537133 -0.21640211 143.7204674 -0.2207738 145.30552101 -0.23063278 C147.46754319 -0.24329313 149.62875551 -0.23750855 151.79077148 -0.22705078 C153.00125341 -0.22851734 154.21173534 -0.2299839 155.45889854 -0.2314949 C158.83839314 0.17881042 160.26402847 0.59775964 162.52236938 3.14044189 C164.23522965 11.75541731 161.68003797 21.28464129 160.03823853 29.76202393 C159.76902176 31.19556061 159.50076794 32.6292784 159.2333889 34.06315899 C158.50633878 37.94706153 157.76590567 41.82830303 157.0229938 45.70919824 C156.2329414 49.84907783 155.45542568 53.99131254 154.67643738 58.13328552 C153.34724374 65.19166085 152.01029356 72.24852927 150.66793823 79.30441284 C148.75640544 89.35261814 146.85864813 99.40338748 144.96431112 109.45484698 C139.14720728 140.3167572 133.28984773 171.17096797 127.38657188 202.01651001 C126.75924315 205.29657269 126.13307158 208.5768537 125.50743103 211.85723877 C125.3110073 212.88709522 125.11458357 213.91695168 124.9122076 214.9780159 C124.53148523 216.97439707 124.15084026 218.97079299 123.77027988 220.96720505 C122.70798487 226.53463121 121.63552063 232.0999687 120.5544157 237.66377163 C119.90601813 241.01011685 119.26558844 244.35795087 118.62727165 247.70623207 C118.34102242 249.19805541 118.0513204 250.6892219 117.75757027 252.17958641 C115.04673721 264.09820553 115.04673721 264.09820553 115.52236938 276.14044189 C117.6579627 278.39131658 119.02382233 279.06663847 122.09571838 279.52139282 C123.0665889 279.5237796 124.03745941 279.52616638 125.03775024 279.52862549 C126.14247177 279.53808197 127.2471933 279.54753845 128.38539124 279.55728149 C129.57399246 279.5512088 130.76259369 279.54513611 131.98721313 279.53887939 C133.21267349 279.54174957 134.43813385 279.54461975 135.70072937 279.5475769 C138.29224103 279.54961835 140.88376806 279.54408295 143.47525024 279.53155518 C147.44117751 279.51551748 151.40608345 279.53139522 155.37197876 279.55059814 C157.88955913 279.54861546 160.40713887 279.54477126 162.92471313 279.53887939 C164.70457863 279.54798843 164.70457863 279.54798843 166.520401 279.55728149 C167.62827469 279.54782501 168.73614838 279.53836853 169.87759399 279.52862549 C170.8492601 279.52623871 171.82092621 279.52385193 172.82203674 279.52139282 C176.26700532 279.03539197 177.87956187 278.44766276 180.52236938 276.14044189 C184.14321271 269.12816761 184.94097417 260.56109657 186.36294556 252.88775635 C186.6327429 251.45783081 186.90309306 250.02800948 187.17394733 248.59828377 C187.90789994 244.71538481 188.63405403 240.83106395 189.35879517 236.94643664 C190.13185146 232.81023221 190.91208084 228.67538066 191.69143677 224.5403595 C193.18945952 216.58614832 194.68083603 208.63070538 196.16993225 200.67481881 C197.8771833 191.55515316 199.5919528 182.43690607 201.30695784 173.31869602 C207.22313384 141.86028923 213.11396504 110.39714329 218.95986938 78.92559814 C219.24872733 77.37088397 219.24872733 77.37088397 219.54342079 75.78476143 C221.24692434 66.61444788 222.94825872 57.44375384 224.6362133 48.27056408 C225.2177847 45.11179398 225.80137513 41.95339878 226.38526917 38.7950573 C226.76204014 36.75217538 227.13567874 34.70874033 227.50906372 32.66523743 C232.25361153 7.00744079 232.25361153 7.00744079 238.31485844 1.51665497 C241.04313854 -0.18421757 242.70360933 -0.24138168 245.90504456 -0.25396729 C246.99715744 -0.26531708 248.08927032 -0.27666687 249.21447754 -0.2883606 C250.40783722 -0.28542999 251.6011969 -0.28249939 252.83071899 -0.27947998 C254.09123581 -0.28794952 255.35175262 -0.29641907 256.65046692 -0.30514526 C260.10506003 -0.32735819 263.5594146 -0.33029211 267.01406932 -0.32839775 C269.89928636 -0.32827804 272.78445288 -0.33684225 275.66965586 -0.34517527 C282.4769586 -0.36440838 289.28413871 -0.36729346 296.09146118 -0.36053467 C303.11145989 -0.35389293 310.13093328 -0.37676318 317.15082544 -0.4138484 C323.18068912 -0.44454623 329.21038382 -0.4559054 335.24032408 -0.45201159 C338.84054707 -0.4499442 342.44036125 -0.4554209 346.04051018 -0.47990417 C350.05556895 -0.50630737 354.06951855 -0.49244313 358.08462524 -0.47479248 C359.27596069 -0.48805573 360.46729614 -0.50131897 361.69473267 -0.51498413 C366.53237031 -0.46546134 369.60550389 -0.41234538 373.79972839 2.11639404 C378.22125718 9.87826358 374.62602515 20.1195155 373.02236938 28.40899658 C372.75177999 29.84027556 372.48191818 31.27169226 372.21272087 32.70323372 C371.47920724 36.5926519 370.73558319 40.48007576 369.99016333 44.36722708 C369.19848837 48.50519508 368.41626933 52.64495048 367.63299561 56.78451538 C366.29742457 63.83625389 364.95609897 70.88687696 363.61080933 77.93676758 C361.69740013 87.96447209 359.79446656 97.99414218 357.89447522 108.02439666 C352.5679441 136.14222691 347.21880823 164.2557526 341.85627365 192.36673737 C340.28756275 200.5912287 338.72324383 208.81654578 337.16304398 217.04265594 C336.17045044 222.27331322 335.17007635 227.50239616 334.16298103 232.73027992 C333.5619574 235.85843037 332.9675263 238.9878054 332.3750267 242.11758041 C332.11040688 243.50780156 331.84301817 244.89749955 331.57239151 246.28656387 C328.86474721 258.23426643 328.86474721 258.23426643 330.70986938 270.01544189 C334.48690315 274.44368838 339.14836635 275.76105893 344.64736938 277.20294189 C348.48629818 278.2133999 351.21037159 278.93244337 354.52236938 281.14044189 C354.68869971 285.04920462 354.43583922 287.13602927 351.75674438 290.08184814 C350.07873962 291.54593508 348.38118588 292.98774677 346.67080688 294.41387939 C343.57538251 297.01897898 340.78134803 299.87076449 337.96353149 302.77032471 C326.87412992 314.16795893 317.40825832 321.91057256 300.82694626 322.515172 C298.82563512 322.53011775 296.82415972 322.52918439 294.82284546 322.5146637 C293.70907162 322.5186381 292.59529778 322.52261251 291.44777322 322.52670735 C287.74952335 322.53626177 284.05166265 322.52455348 280.35342407 322.51275635 C277.68798303 322.51518663 275.02256697 322.51879259 272.35713196 322.52381897 C265.88831575 322.5332687 259.41961174 322.52674009 252.95080391 322.51455603 C245.40161805 322.50087209 237.85245832 322.50257962 230.30326322 322.50468936 C216.82142546 322.5078739 203.33964065 322.49624413 189.8578186 322.47662354 C176.8079975 322.45763691 163.75823847 322.45053273 150.70840454 322.45611572 C136.46750588 322.46219034 122.22663446 322.46196456 107.98573804 322.45062989 C106.46343565 322.44942273 104.94113326 322.44821675 103.41883087 322.44701195 C102.67002002 322.44640841 101.92120916 322.44580487 101.14970706 322.44518304 C95.90171958 322.44132243 90.6537423 322.44169034 85.40575409 322.44359779 C78.99710635 322.44573258 72.58851265 322.44039991 66.17988005 322.42598424 C62.91710698 322.41880053 59.65442689 322.41569963 56.39164543 322.4192276 C11.21492134 322.46064139 11.21492134 322.46064139 -4.47763062 308.14044189 C-5.17630249 307.52169189 -5.87497437 306.90294189 -6.59481812 306.26544189 C-18.22635638 295.38007779 -23.88443212 280.0876307 -24.6667223 264.33208084 C-24.83046485 254.04670433 -23.7137113 244.3461899 -21.87680054 234.24493408 C-21.60235015 232.67625624 -21.32899264 231.10738686 -21.05665112 229.53834152 C-20.21753971 224.73525986 -19.34918923 219.9377224 -18.47763062 215.14044189 C-18.21296099 213.67263105 -17.94850134 212.20478232 -17.68426895 210.7368927 C-15.99978074 201.39654088 -14.26552187 192.06580258 -12.51597619 182.73744678 C-11.78214969 178.82047685 -11.05241705 174.90274386 -10.32215881 170.98510742 C-8.9474751 163.61353648 -7.56933043 156.24261741 -6.18981189 148.87194991 C-4.62669626 140.5193438 -3.06766938 132.16597609 -1.50891173 123.81255579 C0.92433464 110.7732613 3.35974587 97.73437288 5.79849243 84.69610596 C6.1468792 82.83344337 6.1468792 82.83344337 6.50230408 80.93315125 C6.83625687 79.14811943 6.83625687 79.14811943 7.17695618 77.32702637 C7.50176499 75.58368389 7.50176499 75.58368389 7.8331356 73.80512238 C8.32881232 71.16959166 8.83200146 68.53620771 9.34308815 65.90367889 C9.4801262 65.19097957 9.61716425 64.47828025 9.75835496 63.74398398 C10.14279765 61.74593439 10.53086463 59.74858313 10.91915607 57.75127792 C13.53279453 42.10603311 8.39475672 32.70690872 -0.47763062 20.14044189 C-1.48696655 18.69798096 -1.48696655 18.69798096 -2.51669312 17.22637939 C-3.71569051 15.51423085 -4.91949307 13.80542823 -6.12997437 12.10137939 C-8.71737576 8.33652287 -8.56182768 5.68708323 -8.47763062 1.14044189 C-5.62164327 -0.28755178 -3.19395651 0.00785379 0 0 Z " fill="#BE1E2D" transform="translate(2028.4776306152344,184.85955810546875)"/>
<path d="M0 0 C0.92306944 -0.00297112 1.84613888 -0.00594224 2.79718012 -0.0090034 C5.87980559 -0.01765144 8.96239206 -0.01919535 12.04502869 -0.02069092 C14.25977155 -0.0253219 16.47451361 -0.03034694 18.68925476 -0.03573608 C24.69991885 -0.04883628 30.71057178 -0.05530056 36.72124791 -0.05974674 C40.48048187 -0.0626817 44.2397128 -0.06678734 47.99894524 -0.07125092 C58.42447918 -0.0833556 68.85001098 -0.09373869 79.2755518 -0.09712601 C79.94193183 -0.09734557 80.60831187 -0.09756514 81.29488524 -0.09779136 C81.96278531 -0.09800964 82.63068537 -0.09822791 83.31882483 -0.09845281 C84.67205815 -0.09889626 86.02529146 -0.09934282 87.37852478 -0.09979248 C88.38538283 -0.10012463 88.38538283 -0.10012463 89.41258144 -0.10046348 C100.2761738 -0.10440706 111.13969891 -0.1218497 122.00326533 -0.145152 C133.17937607 -0.16892947 144.35546238 -0.18107338 155.53160089 -0.18249393 C161.79740338 -0.18353949 168.06311096 -0.18939419 174.32888985 -0.20731354 C180.22799236 -0.22385634 186.12692924 -0.22591962 192.02604675 -0.21717453 C194.18261599 -0.21640744 196.33919437 -0.22070323 198.49574089 -0.23063278 C218.47432325 -0.31717417 236.03956442 1.26421996 251.39878845 15.54864502 C263.8386231 27.95955943 269.53145559 45.92506156 269.75683594 63.18412781 C269.73595926 68.91975677 268.99565888 74.33896257 267.97618103 79.97271729 C267.79769591 80.9990455 267.6192108 82.02537371 267.43531704 83.08280277 C266.84715506 86.43762428 266.24303457 89.78923565 265.6346283 93.14044189 C265.42953266 94.2761903 265.22443703 95.41193871 265.01312637 96.58210373 C263.55004781 104.65932774 262.05349563 112.73015743 260.54741216 120.79946017 C259.8996948 124.27206819 259.25434224 127.7451159 258.60861206 131.21809387 C257.52518797 137.04317087 256.43997788 142.86791286 255.35362244 148.69244385 C254.11181621 155.35054099 252.87279861 162.00915239 251.63529879 168.66805118 C250.42699379 175.16951508 249.21673825 181.6706145 248.00562859 188.17155647 C247.49839331 190.89442085 246.99177707 193.61739918 246.48571968 196.34048271 C244.03203494 209.53543843 241.55452057 222.72563426 238.96446228 235.89459229 C238.67517522 237.38884436 238.67517522 237.38884436 238.38004398 238.91328335 C234.50534275 258.39606457 227.12485593 274.56704095 214.6346283 290.14044189 C214.09451111 290.84684814 213.55439392 291.55325439 212.99790955 292.28106689 C199.66211948 308.80804098 178.60684719 319.47243166 157.73693466 321.95005322 C149.91923821 322.65803799 142.01093851 322.4159442 134.16978455 322.39923096 C132.02149843 322.40194539 129.87321325 322.40550885 127.72492981 322.40985107 C121.92333544 322.4189235 116.12181266 322.41545213 110.32021713 322.4090929 C104.22978787 322.40400617 98.13936446 322.40873176 92.04893494 322.41186523 C81.82390754 322.41549711 71.5989091 322.41072624 61.37388611 322.40118408 C49.57628464 322.39030106 37.77875232 322.39382718 25.98115253 322.40483689 C15.82620053 322.41393198 5.67126927 322.41518419 -4.48368549 322.40995955 C-10.53751063 322.40685206 -16.59130333 322.40639683 -22.64512634 322.41303253 C-28.338273 322.41883773 -34.03133107 322.41475128 -39.72446823 322.40324402 C-41.80566639 322.40061435 -43.88687208 322.40133333 -45.96806717 322.40576935 C-67.112912 322.44666125 -85.55825154 321.1987013 -101.6700592 305.96075439 C-114.17231356 293.12173897 -119.26056411 276.53765269 -119.47471905 258.88039398 C-118.98951727 246.72253469 -116.69969194 234.63553426 -114.46376038 222.70098877 C-114.1755657 221.13996024 -113.88783507 219.57884598 -113.6005249 218.01765442 C-112.82879456 213.83276943 -112.0500317 209.64922449 -111.26936889 205.4659977 C-110.61390254 201.95041435 -109.96178191 198.43421344 -109.30955774 194.9180274 C-107.76885476 186.61276927 -106.22216925 178.30864072 -104.67176819 170.00518799 C-103.08156773 161.48794192 -101.50205089 152.96876317 -99.9276945 144.4485755 C-98.56671674 137.08546687 -97.19877657 129.72367401 -95.82546216 122.36285639 C-95.00924392 117.98755935 -94.19557631 113.61183013 -93.38876915 109.23478699 C-92.62927187 105.11598144 -91.86097998 100.99890596 -91.08636665 96.8829174 C-90.8064162 95.38771303 -90.52937128 93.89196064 -90.25574493 92.39558601 C-87.80861123 79.03129486 -85.03801184 64.91302593 -78.6153717 52.82794189 C-78.11058289 51.85123535 -78.11058289 51.85123535 -77.59559631 50.85479736 C-74.17681146 44.44467398 -70.00798262 38.72272364 -65.3653717 33.14044189 C-64.64478577 32.26774658 -63.92419983 31.39505127 -63.18177795 30.49591064 C-46.78391881 11.46737891 -25.25966856 -0.02564972 0 0 Z M63.54846478 44.90701294 C61.44446789 47.36235728 60.79521525 48.99951099 60.03546143 52.11798096 C59.67689025 53.57983826 59.67689025 53.57983826 59.31107521 55.07122803 C58.18123992 60.19758174 57.16844955 65.33671984 56.22129822 70.49981689 C55.99926255 71.68927508 55.77722689 72.87873327 55.54846287 74.10423565 C54.94305371 77.35236455 54.34171426 80.60119669 53.74216175 83.85040832 C53.10119507 87.31823105 52.4547846 90.78503918 51.80900574 94.25196838 C50.5680487 100.91871389 49.33179417 107.58632223 48.09738743 114.25428337 C46.53949098 122.66899319 44.97690681 131.08283119 43.41416931 139.49664307 C42.84754613 142.54752768 42.28094566 145.59841651 41.71435547 148.64930725 C41.5746987 149.40127292 41.43504193 150.15323859 41.29115313 150.92799109 C40.44746822 155.47107471 39.60441105 160.01427432 38.76182216 164.55756134 C35.66834382 181.23704025 32.55868654 197.91320964 29.39928246 214.5803566 C28.88085107 217.31620055 28.36346527 220.0522399 27.84649658 222.7883606 C27.68423427 223.64702665 27.52197195 224.50569271 27.35479259 225.39037895 C27.0403376 227.05443332 26.72590476 228.71849187 26.41149616 230.38255501 C25.53445802 235.02064455 24.6506656 239.65738273 23.76191139 244.29324055 C23.3563497 246.41551334 22.95444645 248.53843835 22.554245 250.66172791 C22.08615344 253.14488585 21.61231107 255.6269718 21.13078308 258.1075592 C18.63504642 268.72998957 18.63504642 268.72998957 21.34947205 278.67193604 C26.53706311 280.99085401 31.5793092 280.68986362 37.1971283 280.63653564 C38.42117371 280.63799088 39.64521912 280.63944611 40.90635681 280.64094543 C43.49191165 280.63928692 46.0774764 280.62773113 48.66294861 280.60699463 C52.62008103 280.57804831 56.57587311 280.58638653 60.5330658 280.59942627 C63.04609314 280.59318856 65.55911625 280.58479737 68.0721283 280.57403564 C69.25556824 280.57697128 70.43900818 280.57990692 71.65830994 280.58293152 C72.76295593 280.57024734 73.86760193 280.55756317 75.00572205 280.54449463 C76.4586969 280.53639015 76.4586969 280.53639015 77.94102478 280.52812195 C82.21873928 279.91244686 84.71478418 278.33780999 87.33955383 274.92112732 C88.90082769 271.5688788 89.67432764 268.25794499 90.3558197 264.6494751 C90.50904568 263.88014585 90.66227165 263.11081661 90.82014084 262.31817436 C91.34368981 259.67352917 91.85248337 257.02626071 92.3611908 254.37872314 C92.74462257 252.42030338 93.12864953 250.46200007 93.51319885 248.50379944 C94.77221812 242.06573606 96.01021192 235.62371719 97.24389839 229.18075657 C97.64843669 227.0683372 98.0534181 224.95600312 98.45846558 222.84368134 C102.828888 200.04630661 107.15686231 177.24091612 111.4747088 154.43353379 C113.19272841 145.3592524 114.91360823 136.28551407 116.63459086 127.21179426 C119.18059695 113.78762387 121.72566307 100.36327502 124.26790237 86.93839073 C124.53751123 85.51472576 124.80716576 84.09106944 125.07687378 82.66742325 C125.68822721 79.44024548 126.29823794 76.21284294 126.90432358 72.98467064 C127.41927187 70.27405003 127.9454039 67.56740457 128.48459244 64.8616581 C128.693824 63.79355824 128.693824 63.79355824 128.90728247 62.70388061 C129.29473879 60.72689288 129.68824108 58.7510928 130.0821476 56.77538013 C131.28817106 49.92486257 131.28817106 49.92486257 128.96588135 43.73904419 C126.18894446 41.83482462 124.68141169 41.61651988 121.33457947 41.56280518 C120.27635483 41.53663116 119.21813019 41.51045715 118.12783813 41.48348999 C116.4199688 41.47223587 116.4199688 41.47223587 114.67759705 41.46075439 C113.50127213 41.43947479 112.3249472 41.41819519 111.11297607 41.39627075 C108.62415407 41.35538098 106.13515921 41.32406086 103.64610291 41.30157471 C99.84663967 41.2656735 96.04877664 41.197745 92.24986267 41.12481689 C89.82996818 41.08905861 87.41004561 41.05514409 84.99009705 41.02325439 C83.85759018 41.00360626 82.72508331 40.98395813 81.55825806 40.9637146 C71.9128748 40.70914071 71.9128748 40.70914071 63.54846478 44.90701294 Z " fill="#BE1E2D" transform="translate(699.3653717041016,184.85955810546875)"/>
<path d="M0 0 C2.23253331 -0.00543156 4.46506302 -0.01255998 6.69758606 -0.02124023 C12.71620673 -0.03935341 18.73455071 -0.03245588 24.75317574 -0.01972389 C31.07841819 -0.00953367 37.40363836 -0.01900619 43.72888184 -0.02526855 C55.02553201 -0.03299128 66.32204288 -0.02063029 77.61866516 -0.00023121 C87.82868359 0.01763597 98.03852 0.01453067 108.24853516 -0.00390625 C120.14997759 -0.02538792 132.05130981 -0.03324035 143.95277834 -0.0214572 C150.2364008 -0.01524973 156.51989834 -0.01431059 162.80351257 -0.02760315 C168.71348618 -0.03923402 174.62311911 -0.0310045 180.53305626 -0.00802612 C182.69039535 -0.0027775 184.84776356 -0.00418603 187.00509071 -0.01307678 C207.15578362 -0.0884084 223.96346702 2.05451708 239.31835938 16.32617188 C252.20922732 29.79316799 257.06149197 47.10958078 257.0461731 65.35101318 C256.64558524 82.10322024 252.95559687 98.61645301 249.81231689 115.0222168 C249.11704276 118.68378224 248.44618588 122.34964141 247.77542019 126.01576233 C240.60883738 165.11974815 233.18916363 202.92390284 198.70410156 227.75 C187.06626243 235.66043987 173.6723723 241.62079323 159.39505005 241.65560913 C158.18665466 241.66106247 156.97825928 241.66651581 155.73324585 241.6721344 C154.4157132 241.67317673 153.09818054 241.67421906 151.74072266 241.67529297 C150.33264 241.6799646 148.92455884 241.68510874 147.51647949 241.69068909 C144.48869087 241.70194646 141.46091196 241.71039194 138.43310928 241.71680832 C133.64204521 241.72751273 128.85105113 241.74776356 124.06002808 241.76992798 C110.437675 241.8317719 96.81532666 241.88586141 83.19287109 241.91894531 C75.6658555 241.93730557 68.13895784 241.96625649 60.61202896 242.00695002 C56.63182689 242.02799131 52.65177322 242.04347325 48.6715126 242.04575729 C44.92691067 242.04790879 41.18261801 242.06382893 37.43811035 242.09014702 C35.41538202 242.10073257 33.39259326 242.09659413 31.36984253 242.09196472 C22.47366979 242.17057892 22.47366979 242.17057892 14.41601562 245.51757812 C9.15853289 252.76437866 8.24061931 260.0485871 8.10351562 268.83007812 C8.08579102 269.53640381 8.06806641 270.24272949 8.04980469 270.97045898 C8.03931789 274.76546915 8.03931789 274.76546915 9.44483852 278.21256065 C12.5272683 280.25328277 15.74285164 279.93544701 19.31813049 279.90957642 C20.13190956 279.91551768 20.94568862 279.92145894 21.78412765 279.92758024 C24.5203666 279.94393576 27.25615406 279.93891439 29.99243164 279.93408203 C31.95020062 279.94145838 33.90796499 279.95016223 35.86572266 279.96009827 C41.1899135 279.98347387 46.51398787 279.98857369 51.8382237 279.99075747 C57.40138002 279.99640655 62.96445977 280.01967151 68.52757263 280.04135132 C79.06841328 280.07991794 89.6092321 280.10410974 100.15012544 280.12247598 C119.03756193 280.15585378 137.92493306 280.21351539 156.81229156 280.27646768 C163.44601581 280.2980083 170.07971735 280.31325011 176.71346867 280.32330728 C180.83258597 280.33030701 184.95168699 280.34118458 189.07079315 280.35294914 C190.98728285 280.35752125 192.90377756 280.36035791 194.82027245 280.36137199 C197.42717699 280.36293519 200.03399676 280.37049198 202.6408844 280.37954712 C203.40731107 280.37847887 204.17373774 280.37741061 204.96338946 280.37630999 C210.18794462 280.40354262 210.18794462 280.40354262 212.41601562 281.51757812 C212.07300044 287.03032214 209.93070283 289.69701893 206.04101562 293.33007812 C205.50154297 293.84997314 204.96207031 294.36986816 204.40625 294.90551758 C199.31853404 299.7455421 193.96611613 304.21722053 188.41601562 308.51757812 C187.40152344 309.31421875 186.38703125 310.11085938 185.34179688 310.93164062 C170.1543639 322.6318713 170.1543639 322.6318713 160.18911362 322.64900589 C159.34803488 322.65284703 158.50695613 322.65668818 157.64039016 322.66064572 C156.72134595 322.65977924 155.80230175 322.65891276 154.85540771 322.65802002 C153.38488524 322.6624767 153.38488524 322.6624767 151.88465524 322.66702342 C148.59008709 322.67571484 145.29555527 322.67721909 142.00097656 322.67871094 C139.64213992 322.68333903 137.28330402 322.68836368 134.92446899 322.6937561 C127.83663527 322.70825911 120.74880933 322.7142671 113.66096342 322.71915162 C110.31780053 322.72173145 106.9746391 322.72552164 103.63147736 322.72927094 C92.50693285 322.74146713 81.38239025 322.75176302 70.2578392 322.75514603 C69.54584276 322.75536559 68.83384631 322.75558516 68.10027422 322.75581138 C67.02978772 322.75613879 67.02978772 322.75613879 65.93767524 322.75647283 C64.49165328 322.75691628 63.04563133 322.75736285 61.59960938 322.7578125 C60.88233957 322.75803393 60.16506977 322.75825536 59.42606452 322.7584835 C47.8296837 322.76242303 36.23336606 322.77984956 24.63700959 322.80317202 C12.71291235 322.82695846 0.78884668 322.83935133 -11.13527465 322.84051394 C-17.82260542 322.84142707 -24.50984162 322.84741007 -31.19715118 322.86533356 C-37.49757633 322.88189026 -43.79784644 322.88393295 -50.09828568 322.87519455 C-52.40075472 322.87442806 -54.70323236 322.87871516 -57.00568008 322.8886528 C-78.04158024 322.97406009 -97.30133355 322.27817516 -113.33789062 306.85742188 C-126.29883811 293.35549571 -131.94753399 277.07686202 -132.08633423 258.45347595 C-131.78521839 243.91070527 -128.23480982 229.43762397 -125.46721649 215.20555878 C-124.60616855 210.75746383 -123.76483395 206.30564812 -122.92236328 201.85400391 C-121.87434312 196.32157282 -120.82486231 190.7894435 -119.7671814 185.2588501 C-117.33751608 172.54913334 -114.96945552 159.82924092 -112.64648438 147.09960938 C-112.33046559 145.36989645 -112.01443581 143.64018554 -111.69839478 141.91047668 C-110.49323209 135.31125416 -109.2896718 128.71174189 -108.08953857 122.11160278 C-102.84785814 93.30561775 -102.84785814 93.30561775 -99.86914062 79.38476562 C-99.67971893 78.48833344 -99.49029724 77.59190125 -99.2951355 76.66830444 C-97.58496724 68.89129666 -94.99636102 61.72830718 -91.58398438 54.51757812 C-91.13410156 53.56109375 -90.68421875 52.60460937 -90.22070312 51.61914062 C-78.85958917 29.28095037 -59.02767375 11.32941719 -35.2248764 3.39832306 C-23.44922174 0.11694746 -12.16586905 -0.05013786 0 0 Z M50.41601562 46.51757812 C46.70286056 54.62072615 45.35839946 63.96942106 43.75878906 72.69238281 C43.52411926 73.93803513 43.28944946 75.18368744 43.04766846 76.46708679 C42.4127326 79.83948481 41.7872787 83.2135726 41.16414165 86.58816814 C40.64034974 89.41937888 40.11161364 92.24965715 39.58287072 95.07994676 C38.33526573 101.75826949 37.09521997 108.43796362 35.86035156 115.11865234 C34.590588 121.98754833 33.30942328 128.85424614 32.02244163 135.71993518 C30.91237398 141.64360226 29.80865623 147.56842742 28.71012521 153.49424481 C28.05628601 157.02116736 27.40028941 160.54764982 26.73845673 164.07308197 C26.00157339 168.00049086 25.27801143 171.93024317 24.55566406 175.86035156 C24.22846375 177.59054787 24.22846375 177.59054787 23.89465332 179.35569763 C21.48092272 190.06061528 21.48092272 190.06061528 24.14672852 200.04907227 C29.25854224 202.34520844 34.18402757 202.0674022 39.72460938 202.01367188 C41.52382591 202.01585472 41.52382591 202.01585472 43.35939026 202.01808167 C45.89367097 202.01642315 48.42796179 202.00486739 50.9621582 201.98413086 C54.83588598 201.95520975 58.70824223 201.96351778 62.58203125 201.9765625 C65.0462306 201.97032392 67.51042562 201.96193205 69.97460938 201.95117188 C71.13101425 201.95410751 72.28741913 201.95704315 73.47886658 201.96006775 C81.39039909 201.90644685 81.39039909 201.90644685 88.41601562 198.51757812 C90.93640113 195.63648351 91.91816304 193.34483713 92.62530518 189.60192871 C92.81514355 188.62575844 93.00498192 187.64958817 93.20057297 186.64383698 C93.39445225 185.5883239 93.58833153 184.53281082 93.78808594 183.4453125 C94.0005257 182.33608177 94.21296547 181.22685104 94.4318428 180.08400726 C95.10344312 176.56371127 95.76014141 173.04083406 96.41601562 169.51757812 C96.82963218 167.33617479 97.24412302 165.15493702 97.6595459 162.97387695 C98.94361118 156.2102071 100.20458898 149.44233111 101.46289062 142.67382812 C101.9241219 140.19762213 102.38540637 137.72142605 102.84674072 135.24523926 C103.80250041 130.11276944 104.7569086 124.9800505 105.71044922 119.84716797 C106.80795392 113.94040415 107.90884539 108.03428219 109.01156688 102.12849092 C110.08391453 96.38438503 111.15264164 90.63961027 112.22000885 84.89457703 C112.6702808 82.4735732 113.12159475 80.05276293 113.5739975 77.63215637 C114.20379905 74.26054689 114.82945611 70.888193 115.45410156 67.515625 C115.63901657 66.53062515 115.82393158 65.54562531 116.01445007 64.53077698 C116.80774987 60.22618625 117.55899871 55.9156524 118.16363525 51.5802002 C118.26194767 50.89053413 118.36026009 50.20086807 118.46155167 49.49030304 C118.4045668 47.02158913 117.72551797 45.59366702 116.41601562 43.51757812 C113.78608607 42.20261335 111.79755845 42.36876362 108.85229492 42.34057617 C107.68736008 42.32774094 106.52242523 42.3149057 105.32218933 42.30168152 C104.0576442 42.29429459 102.79309906 42.28690765 101.49023438 42.27929688 C99.54791679 42.26718925 99.54791679 42.26718925 97.56636047 42.25483704 C94.82166677 42.23980991 92.07699895 42.22997223 89.33227539 42.22241211 C85.82155794 42.21135489 82.31147561 42.17696365 78.80098248 42.13724041 C75.44742526 42.10476123 72.09393674 42.10029418 68.74023438 42.09179688 C67.48176193 42.07428879 66.22328949 42.0567807 64.92668152 42.03874207 C63.16509453 42.04313042 63.16509453 42.04313042 61.36791992 42.04760742 C60.33692673 42.04174118 59.30593353 42.03587494 58.24369812 42.02983093 C54.58187792 42.66145861 53.09696529 43.96481041 50.41601562 46.51757812 Z " fill="#BE1E2D" transform="translate(2560.583984375,184.482421875)"/>
<path d="M0 0 C1.25613098 -0.0071553 2.51226196 -0.01431061 3.80645752 -0.02168274 C5.20123266 -0.02452297 6.59600807 -0.02723471 7.99078369 -0.02983093 C9.45768393 -0.03609651 10.92458258 -0.0427434 12.39147949 -0.04974365 C17.21135352 -0.07077563 22.03122784 -0.08114537 26.85113525 -0.09111023 C28.51113146 -0.09515814 30.17112749 -0.09927507 31.83112335 -0.10346031 C39.63032721 -0.12251026 47.42952162 -0.13674158 55.22874427 -0.14507228 C64.22793583 -0.15484373 73.22688137 -0.18116153 82.22598624 -0.22157317 C89.18406245 -0.25174572 96.14206817 -0.26654224 103.10020852 -0.26985329 C107.25490247 -0.27220254 111.40933352 -0.28114639 115.56395721 -0.30631447 C119.47432286 -0.32962023 123.38425297 -0.33381858 127.2946701 -0.32355309 C128.72692311 -0.32305821 130.15919774 -0.32936441 131.59138489 -0.34310913 C145.04425175 -0.46495407 145.04425175 -0.46495407 150.99176025 4.14717102 C157.45902422 11.57599683 161.02264671 22.59471894 165.05426025 31.52217102 C165.79967453 33.160908 166.54577603 34.79933254 167.2925415 36.43745422 C168.42556073 38.92308673 169.55816933 41.40889598 170.68856812 43.89572144 C174.24903008 51.72766098 177.86287275 59.53425376 181.49176025 67.33467102 C182.03711426 68.50884583 182.58246826 69.68302063 183.14434814 70.89277649 C185.53761873 77.5425531 185.53761873 77.5425531 190.17926025 82.02217102 C194.64920726 82.22083533 197.50561593 79.49901272 200.6850338 76.60691833 C202.5828204 74.75258974 204.44107695 72.86534755 206.2913208 70.96357727 C206.99629196 70.24765411 207.70126312 69.53173096 208.42759705 68.79411316 C209.95196561 67.2454716 211.47416685 65.69469429 212.99442101 64.14201355 C215.40671126 61.68086698 217.82743144 59.22832114 220.25099182 56.77827454 C227.13925065 49.81386755 234.02079307 42.84305374 240.87530518 35.84541321 C245.0750759 31.55918956 249.29197605 27.29047155 253.52027321 23.03239441 C255.12261652 21.41216728 256.71852078 19.78554449 258.30762291 18.15232849 C260.53739875 15.8619196 262.78841847 13.59449935 265.04522705 11.33076477 C265.6882074 10.6594754 266.33118774 9.98818604 266.99365234 9.29655457 C273.56661564 2.79393226 281.42549076 -0.26488121 290.66891479 -0.37272644 C291.41168671 -0.36148743 292.15445862 -0.35024841 292.91973877 -0.33866882 C293.7374324 -0.34246552 294.55512604 -0.34626221 295.39759827 -0.35017395 C298.05569878 -0.35748518 300.71266614 -0.33634833 303.3706665 -0.31376648 C305.23345309 -0.31137829 307.09624211 -0.31047753 308.95903015 -0.31098938 C312.8396437 -0.30787861 316.71988326 -0.29143505 320.60040283 -0.26445007 C325.58060627 -0.23025846 330.56040428 -0.22282847 335.5407114 -0.22434044 C339.37619411 -0.2237979 343.21158777 -0.21285298 347.04704094 -0.19833755 C348.88470729 -0.19196753 350.72238371 -0.18803018 352.5600605 -0.18655014 C355.11632834 -0.18223136 357.67215826 -0.16476786 360.22833252 -0.14335632 C360.98932251 -0.1442627 361.7503125 -0.14516907 362.53436279 -0.14610291 C367.76278215 -0.08180708 367.76278215 -0.08180708 369.99176025 2.14717102 C369.9399307 6.42681092 368.01631462 8.57098772 365.04522705 11.49629211 C364.24532349 12.25160217 364.24532349 12.25160217 363.42926025 13.02217102 C362.60518677 13.82195374 362.60518677 13.82195374 361.76446533 14.63789368 C358.37446802 17.90498928 354.90135894 21.05640149 351.315979 24.10810852 C347.96916681 27.04430342 344.73757954 30.10018831 341.49176025 33.14717102 C337.0784205 37.28612014 332.64666277 41.37736322 328.06207275 45.32685852 C323.51365614 49.32603237 319.10581634 53.4848381 314.66314697 57.6007843 C307.67540189 64.06592852 300.63931426 70.47628922 293.55426025 76.83467102 C290.16777704 79.89076563 286.80931211 82.97702714 283.45050049 86.06343079 C280.33542901 88.92319306 277.2032435 91.76232461 274.05426025 94.58467102 C270.16805427 98.07165199 266.32333218 101.60049087 262.49176025 105.14717102 C257.87435084 109.42125867 253.22231775 113.65266356 248.53863525 117.85420227 C245.57427844 120.52303272 242.62344976 123.20612847 239.67926025 125.89717102 C238.71375244 126.77888977 237.74824463 127.66060852 236.753479 128.56904602 C229.87624413 134.84359908 229.87624413 134.84359908 225.99176025 143.14717102 C227.17571969 150.21956445 230.23083986 156.1251986 233.49176025 162.45967102 C234.0336499 163.52725647 234.57553955 164.59484192 235.1338501 165.69477844 C238.62561947 172.55167004 242.18305738 179.37336935 245.78985596 186.17036438 C250.15896615 194.41692235 254.41671357 202.72021575 258.67926025 211.02217102 C260.25858376 214.09774506 261.83798307 217.17328013 263.4175415 220.24873352 C263.80755341 221.00812729 264.19756531 221.76752106 264.59939575 222.54992676 C268.17369509 229.50670886 271.76849193 236.45275492 275.36676025 243.39717102 C280.95033308 254.18047943 286.51033364 264.97578944 292.05505371 275.77912903 C292.91114471 277.44701465 293.7675356 279.11474639 294.62426758 280.78230286 C296.62746273 284.6819888 298.62530696 288.58420272 300.61187744 292.49238586 C302.25718364 295.72634927 303.934745 298.9412834 305.62945557 302.14961243 C306.47180298 303.7697754 307.31393284 305.39005151 308.15582275 307.01045227 C308.75661148 308.12652107 308.75661148 308.12652107 309.36953735 309.26513672 C310.96729695 312.37063341 311.98008374 314.50272555 312.04400635 318.03071594 C310.99176025 320.14717102 310.99176025 320.14717102 308.80146408 321.26315594 C305.70753975 322.23659511 303.22491898 322.40150494 299.98425293 322.40786743 C298.17599533 322.41849464 298.17599533 322.41849464 296.33120728 322.42933655 C295.01681671 322.42685913 293.70242615 322.42438171 292.34820557 322.42182922 C290.9433668 322.42617877 289.5385304 322.43136273 288.13369751 322.43731689 C284.32356667 322.45069545 280.5135351 322.4512866 276.70338535 322.4487536 C273.5177839 322.44768261 270.33220242 322.45257078 267.14660525 322.45735902 C259.62622501 322.46845132 252.10589472 322.46889387 244.58551025 322.46284485 C236.84146241 322.45681134 229.09759655 322.46910079 221.35357976 322.49041492 C214.69435829 322.50806574 208.03519456 322.5140266 201.37595057 322.51077718 C197.40348918 322.50896892 193.43115745 322.51155411 189.45871735 322.52549171 C185.719073 322.53812139 181.97971065 322.53607779 178.24007034 322.52308083 C176.22484849 322.51960942 174.20961783 322.53085649 172.19442749 322.54264832 C164.03524884 322.49561366 156.83421302 322.09197966 150.190979 317.00068665 C147.3985346 313.37745283 145.62309819 309.67024927 143.80426025 305.49092102 C143.42442993 304.6432869 143.04459961 303.79565277 142.65325928 302.92233276 C141.42217708 300.1685245 140.20711956 297.40794928 138.99176025 294.64717102 C138.14591778 292.75008642 137.29890518 290.85352311 136.45074463 288.95747375 C133.9504429 283.36019109 131.46859107 277.75487242 128.99176025 272.14717102 C128.28997776 270.55877426 127.58815712 268.97039434 126.8862915 267.3820343 C126.40011353 266.28171371 126.40011353 266.28171371 125.90411377 265.15916443 C124.7103848 262.46064974 123.51244181 259.76401703 122.31402588 257.06758118 C121.50754848 255.24534454 120.71049399 253.41894686 119.91363525 251.59248352 C119.434104 250.50838196 118.95457275 249.4242804 118.46051025 248.30732727 C118.05252197 247.37541565 117.64453369 246.44350403 117.22418213 245.48335266 C116.02103875 243.2026714 114.99342124 241.75592533 112.99176025 240.14717102 C110.20893495 239.30964677 110.20893495 239.30964677 106.99176025 240.14717102 C101.08483749 244.4776019 95.96076097 250.03048472 90.800354 255.20576477 C90.05141373 255.95374832 89.30247345 256.70173187 88.53083801 257.47238159 C86.95904801 259.04349566 85.38850177 260.61585494 83.81915283 262.18940735 C81.43574722 264.57816948 79.04704957 266.96154548 76.65777588 269.34443665 C75.12164789 270.88122552 73.58583017 272.41832462 72.050354 273.95576477 C70.99381874 275.00926369 70.99381874 275.00926369 69.91593933 276.08404541 C65.99835143 280.01994485 62.27097742 284.05971462 58.64247131 288.26293945 C56.17035375 291.08477912 53.56986119 293.7687908 50.93707275 296.44013977 C50.39122528 296.99405899 49.84537781 297.54797821 49.2829895 298.11868286 C48.13999511 299.27536086 46.99554474 300.43060185 45.84967041 301.58442688 C44.69347554 302.75218695 43.54177306 303.92441193 42.39459229 305.10102844 C26.09415158 321.81770008 26.09415158 321.81770008 13.29763794 322.28088379 C11.84658003 322.28982062 10.39548213 322.29331849 8.94439697 322.29243469 C7.75084091 322.29747261 7.75084091 322.29747261 6.53317261 322.3026123 C3.91258164 322.31208364 1.29205475 322.31406311 -1.32855225 322.31513977 C-3.15267971 322.31835363 -4.97680692 322.3217178 -6.80093384 322.32522583 C-10.61890257 322.33120654 -14.43684869 322.33306668 -18.25482178 322.33247375 C-23.15210376 322.33237188 -28.04924159 322.34605521 -32.94648933 322.36324596 C-36.71079173 322.37434776 -40.47505898 322.37639357 -44.23937607 322.37586403 C-46.04552586 322.3770457 -47.85167652 322.3814779 -49.65781021 322.3891964 C-52.17853272 322.39896503 -54.6989382 322.39613136 -57.21966553 322.39009094 C-57.96778503 322.39571045 -58.71590454 322.40132996 -59.48669434 322.40711975 C-63.21464483 322.38435402 -64.8224646 322.27102112 -68.00823975 320.14717102 C-67.21585396 313.21379538 -62.62896717 309.71364565 -57.6137085 305.43232727 C-54.17217954 302.41389482 -50.84454481 299.28097766 -47.50823975 296.14717102 C-43.09503754 292.00808076 -38.66313536 287.91697287 -34.07855225 283.96748352 C-29.53013563 279.96830967 -25.12229583 275.80950394 -20.67962646 271.69355774 C-13.68917059 265.22590546 -6.64957054 258.81398877 0.43707275 252.45185852 C5.31770057 248.04884566 10.15168067 243.59464593 14.99176025 239.14717102 C21.44543931 233.21698431 27.91508761 227.30705924 34.43707275 221.45185852 C39.31770057 217.04884566 44.15168067 212.59464593 48.99176025 208.14717102 C50.52740538 206.73609026 52.06320319 205.32517889 53.59967041 203.91499329 C54.60526086 202.99177258 55.61015248 202.06779008 56.61431885 201.14302063 C58.99499773 198.95529542 61.39395118 196.79539246 63.82769775 194.66670227 C71.35286964 188.08981994 71.35286964 188.08981994 75.99176025 179.39717102 C75.99176025 171.27679898 70.61372423 163.22069976 66.86676025 156.20967102 C65.78625587 154.16206206 64.70690237 152.11384552 63.628479 150.06513977 C63.04372803 148.95574036 62.45897705 147.84634094 61.85650635 146.70332336 C58.42084512 140.16539454 55.05403956 133.59165887 51.67926025 127.02217102 C51.30503937 126.29408234 50.93081848 125.56599365 50.54525757 124.81584167 C42.97764068 110.09077629 35.43936129 95.35068488 27.91070557 80.60566711 C26.93512942 78.69501759 25.95954342 76.78437308 24.98394775 74.87373352 C24.49736694 73.920784 24.01078613 72.96783447 23.50946045 71.98600769 C20.41918164 65.93587074 17.32245407 59.88907794 14.22102356 53.84465027 C12.12601254 49.7613962 10.03288619 45.67717731 7.93984985 41.59291077 C6.94698482 39.65676477 5.95321679 37.72108152 4.95846558 35.78590393 C1.94315145 29.91945844 -1.05230112 24.04377713 -4.00823975 18.14717102 C-4.35280212 17.4625177 -4.6973645 16.77786438 -5.05236816 16.07246399 C-5.95694107 14.26070265 -6.84085583 12.43866775 -7.7230835 10.61592102 C-8.19737793 9.64074524 -8.67167236 8.66556946 -9.16033936 7.6608429 C-10.07927584 4.93657856 -10.25590937 3.7327563 -9.00823975 1.14717102 C-5.76842424 0.06723252 -3.40888902 0.01331253 0 0 Z " fill="#BE1E2D" transform="translate(1036.0082397460938,184.8528289794922)"/>
<path d="M0 0 C2.73082477 2.73082477 2.8734379 5.28667958 3 9 C2.75420024 12.7564501 2.23358531 16.46143384 1.70263672 20.18702698 C1.55073254 21.307793 1.39882835 22.42855903 1.24232101 23.58328766 C0.73057442 27.34142413 0.20510071 31.09751148 -0.3203125 34.85375977 C-0.69181086 37.55286675 -1.06039951 40.25236916 -1.42910767 42.95185852 C-2.22766977 48.7871638 -3.03328573 54.62146049 -3.84362793 60.45514107 C-5.03182941 69.00929603 -6.20902068 77.56493943 -7.38372612 86.12095689 C-9.31181228 100.1621591 -11.24841366 114.2021732 -13.19042969 128.24145508 C-15.71527884 146.49437817 -18.23099573 164.7485484 -20.74328804 183.00320363 C-21.85936721 191.11272666 -22.97594419 199.22218115 -24.0925293 207.33163452 C-24.20250303 208.13037008 -24.31247677 208.92910565 -24.42578304 209.75204532 C-26.40753068 224.14518985 -28.39137554 238.53804481 -30.37572569 252.93083074 C-30.48323874 253.7106403 -30.5907518 254.49044985 -30.70152283 255.29389 C-30.8087764 256.071817 -30.91602998 256.84974401 -31.02653366 257.65124456 C-33.01865019 272.10069728 -35.00963514 286.5503059 -37 301 C-37.09993413 301.72547228 -37.19986826 302.45094456 -37.3028307 303.19840086 C-39.64512725 320.20261908 -41.98464338 337.20721012 -44.31353569 354.21327037 C-45.13770212 360.23146111 -45.96311269 366.2494734 -46.79211426 372.2670002 C-47.54686031 377.74586474 -48.29787991 383.22522618 -49.04580498 388.70502591 C-49.31613104 390.68084869 -49.58781573 392.65648615 -49.86097908 394.63191867 C-50.22981813 397.3008657 -50.59370069 399.97044255 -50.95629883 402.64024353 C-51.06362209 403.40816005 -51.17094536 404.17607657 -51.28152084 404.96726328 C-52.73314658 413.36397004 -52.73314658 413.36397004 -50 421 C-47.58213665 422.24505561 -47.58213665 422.24505561 -44.75 423.0625 C-34.51783957 426.48216043 -34.51783957 426.48216043 -31 430 C-31.13503621 434.84442385 -33.91426076 437.69215383 -37 441.125 C-38.00860948 442.28055486 -39.01641047 443.43681584 -40.0234375 444.59375 C-40.52713867 445.16738281 -41.03083984 445.74101562 -41.54980469 446.33203125 C-43.62694695 448.72109454 -45.62773564 451.16900001 -47.625 453.625 C-48.32571121 454.44914902 -49.02642242 455.27329803 -49.74836731 456.12242126 C-52.05049039 458.89115173 -52.05049039 458.89115173 -53.53178406 461.88844299 C-56.09723677 466.20848658 -58.40663282 469.30947114 -63.33252335 470.62107468 C-70.7089911 471.64389562 -78.15611961 471.36153089 -85.58203125 471.21484375 C-88.0033781 471.20447025 -90.42474684 471.19839608 -92.84611511 471.19642639 C-97.90801766 471.18108955 -102.96776759 471.12968599 -108.02905273 471.04956055 C-114.52048482 470.94744974 -121.0101171 470.9110881 -127.50227833 470.89845943 C-132.49606759 470.88572945 -137.48948572 470.85080556 -142.48309898 470.80783272 C-144.87730561 470.78754979 -147.27154989 470.77130098 -149.66581154 470.75913811 C-153.0054876 470.73638158 -156.34363657 470.68675217 -159.68286133 470.62866211 C-160.67357132 470.62576172 -161.66428131 470.62286133 -162.68501282 470.61987305 C-163.59464783 470.59847763 -164.50428284 470.57708221 -165.44148254 470.55503845 C-166.22990949 470.54443862 -167.01833643 470.53383879 -167.8306551 470.52291775 C-170.92789295 469.77633262 -172.10778693 468.53611013 -174 466 C-176.0596896 454.75211507 -172.75175267 441.84752801 -171.02514648 430.70068359 C-170.70377105 428.57531953 -170.383312 426.44981672 -170.06369019 424.32418823 C-169.19383644 418.55672663 -168.31125958 412.79127626 -167.42645526 407.02609205 C-166.48494684 400.87610281 -165.55554023 394.72428437 -164.62477112 388.57266235 C-163.04657701 378.1527352 -161.46128325 367.7339078 -159.87036133 357.31591797 C-157.68593835 343.01124076 -155.51120362 328.70510545 -153.34013247 314.39839506 C-152.37237076 308.02158109 -151.40398573 301.64486178 -150.43569946 295.26812744 C-149.27884831 287.64910525 -148.1220841 280.03006988 -146.96552658 272.41100311 C-146.00733558 266.09888616 -145.04889191 259.78680763 -144.09022832 253.47476244 C-143.71024711 250.97282586 -143.33031814 248.47088136 -142.95044208 245.96892881 C-140.70001401 231.14868566 -138.43969701 216.33001555 -136.16413707 201.51360977 C-134.72207637 192.12172773 -133.2879756 182.72865263 -131.85980016 173.33464921 C-130.87230143 166.84248809 -129.87499256 160.35194406 -128.86976385 153.86250591 C-128.25736378 149.89224277 -127.65498306 145.92050728 -127.05541873 141.94828749 C-126.78011873 140.13763814 -126.50082316 138.32759041 -126.21695065 136.51826525 C-123.92781885 121.90598648 -123.01756024 107.84703516 -125.25 93.125 C-125.45677368 91.7332959 -125.45677368 91.7332959 -125.66772461 90.31347656 C-126.09348341 87.53903938 -126.54445383 84.76968028 -127 82 C-127.1848999 80.78812012 -127.1848999 80.78812012 -127.37353516 79.55175781 C-128.99487085 69.2160141 -132.04031653 60.9850065 -137.64672852 52.09863281 C-140.43820714 47.58928105 -141.83798598 44.4806986 -141 39 C-138.53382704 35.42214956 -134.67903669 34.79974534 -130.69433594 33.75439453 C-129.9492468 33.55027671 -129.20415766 33.34615889 -128.43649006 33.13585567 C-125.95494773 32.4585854 -123.46977213 31.79578389 -120.984375 31.1328125 C-119.2313945 30.65720307 -117.47866761 30.18065801 -115.72618103 29.70323181 C-111.03810248 28.42863937 -106.34683635 27.16618545 -101.65481186 25.90620804 C-96.8303349 24.60873324 -92.0085983 23.30116493 -87.18676758 21.99389648 C-81.44908368 20.43866418 -75.71128628 18.88387834 -69.97224426 17.33366394 C-59.37204866 14.46881159 -48.78416794 11.56669751 -38.21484375 8.58984375 C-36.54299515 8.12016174 -36.54299515 8.12016174 -34.83737183 7.64099121 C-30.83044723 6.51443348 -26.82375008 5.38745058 -22.82189941 4.24298096 C-20.22060256 3.49936627 -17.61655609 2.76625212 -15.01171875 2.03515625 C-14.28645493 1.82382553 -13.5611911 1.61249481 -12.81394958 1.39476013 C-8.44674331 0.18094421 -4.52793895 -0.36550449 0 0 Z " fill="#BE1E2D" transform="translate(3029,36)"/>
</svg>
